<svg width="12" height="94" viewBox="0 0 12 94" fill="none" xmlns="http://www.w3.org/2000/svg">
<path d="M11.1604 91.157C11.7018 91.9937 13 91.6103 13 90.6138L13 3.38622C13 2.38972 11.7018 2.00633 11.1604 2.84297L2.16043 16.7521C2.05571 16.9139 2 17.1026 2 17.2953L2 76.7047C2 76.8974 2.05571 77.0861 2.16043 77.2479L11.1604 91.157Z" fill="url(#paint0_linear_21_2696)"/>
<path d="M9.16536 42.79L4.52149 46.7694C4.44667 46.8336 4.38662 46.9132 4.34545 47.0027C4.30428 47.0922 4.28296 47.1896 4.28296 47.2881C4.28296 47.3867 4.30428 47.4841 4.34545 47.5736C4.38662 47.6631 4.44667 47.7427 4.52149 47.8069L9.16536 51.7863C9.60863 52.166 10.2933 51.8512 10.2933 51.2676V43.3076C10.2933 42.724 9.60863 42.4091 9.16536 42.79Z" fill="#EFECE2"/>
<defs>
<linearGradient id="paint0_linear_21_2696" x1="13" y1="47" x2="2" y2="47" gradientUnits="userSpaceOnUse">
<stop stop-color="#B18C52"/>
<stop offset="1" stop-color="#CCB767"/>
</linearGradient>
</defs>
</svg>
