<svg width="30" height="30" viewBox="0 0 30 30" fill="none" xmlns="http://www.w3.org/2000/svg">
<path d="M15 2.8125C8.26934 2.8125 2.8125 8.26934 2.8125 15C2.8125 21.7307 8.26934 27.1875 15 27.1875C21.7307 27.1875 27.1875 21.7307 27.1875 15C27.1875 8.26934 21.7307 2.8125 15 2.8125ZM12.6562 21.951L11.3303 20.625L16.9553 15L11.3303 9.375L12.6562 8.04902L19.6072 15L12.6562 21.951Z" fill="black"/>
<path d="M15 2.8125C8.26934 2.8125 2.8125 8.26934 2.8125 15C2.8125 21.7307 8.26934 27.1875 15 27.1875C21.7307 27.1875 27.1875 21.7307 27.1875 15C27.1875 8.26934 21.7307 2.8125 15 2.8125ZM12.6562 21.951L11.3303 20.625L16.9553 15L11.3303 9.375L12.6562 8.04902L19.6072 15L12.6562 21.951Z" fill="url(#paint0_linear_1_6622)"/>
<defs>
<linearGradient id="paint0_linear_1_6622" x1="11.9643" y1="2.85714" x2="28.428" y2="21.5938" gradientUnits="userSpaceOnUse">
<stop stop-color="#B18C52"/>
<stop offset="0.398958" stop-color="#E8E3CC"/>
<stop offset="1" stop-color="#B18C52"/>
</linearGradient>
</defs>
</svg>
