<?xml version="1.0" encoding="utf-8"?><svg viewBox="0 0 40 40" xmlns="http://www.w3.org/2000/svg" xmlns:xlink="http://www.w3.org/1999/xlink"><style>:root>svg{display:none}:root>svg:target{display:block}</style><svg viewBox="0 0 22 22" id="angle-right-blue" xmlns="http://www.w3.org/2000/svg"><g clip-path="url(#aclip0_1_4677)" stroke="currentColor" stroke-width="1.5" stroke-linecap="round" stroke-linejoin="round"><path d="M8 21h6c5 0 7-2 7-7V8c0-5-2-7-7-7H8C3 1 1 3 1 8v6c0 5 2 7 7 7z"/><path d="M9.74 14.53L13.26 11 9.74 7.47"/></g><defs><clipPath id="aclip0_1_4677"><path d="M0 0h22v22H0z"/></clipPath></defs></svg><svg viewBox="0 0 22 22" id="angle-top" xmlns="http://www.w3.org/2000/svg"><g clip-path="url(#bclip0_1_4691)" stroke="currentColor" stroke-width="1.5" stroke-linecap="round" stroke-linejoin="round"><path d="M1 8v6c0 5 2 7 7 7h6c5 0 7-2 7-7V8c0-5-2-7-7-7H8C3 1 1 3 1 8z"/><path d="M7.47 13.26L11 9.74l3.53 3.52"/></g><defs><clipPath id="bclip0_1_4691"><path transform="rotate(-90 11 11)" d="M0 0h22v22H0z"/></clipPath></defs></svg><svg viewBox="0 0 31 31" id="attach" xmlns="http://www.w3.org/2000/svg"><g clip-path="url(#cclip0_1_1383)"><path d="M15.107 18.65l3.77-4.897a1.722 1.722 0 00-2.729-2.1l-4.946 6.416a2.921 2.921 0 00.512 4.122 2.92 2.92 0 004.115-.561l4.975-6.464a4.104 4.104 0 10-6.504-5.005L9.65 16.2" stroke="currentColor" stroke-miterlimit="10" stroke-linecap="round"/></g><defs><clipPath id="cclip0_1_1383"><path transform="rotate(-142.418 13.966 12.46)" d="M0 0h22v22H0z"/></clipPath></defs></svg><svg viewBox="0 0 35 35" id="base-calendar" xmlns="http://www.w3.org/2000/svg"><path d="M28.438 5.469H6.563A3.281 3.281 0 003.28 8.75v19.688a3.281 3.281 0 003.281 3.28h21.875a3.281 3.281 0 003.282-3.28V8.75a3.281 3.281 0 00-3.282-3.281z" stroke="currentColor" stroke-width="2.188" stroke-linejoin="round"/><path d="M8.75 3.281V5.47m17.5-2.188V5.47m5.469 5.468H3.28" stroke="currentColor" stroke-width="2.188" stroke-linecap="round" stroke-linejoin="round"/></svg><svg viewBox="0 0 35 35" id="calendar" xmlns="http://www.w3.org/2000/svg"><path d="M28.438 5.469H6.563A3.281 3.281 0 003.28 8.75v19.688a3.281 3.281 0 003.281 3.28h21.875a3.281 3.281 0 003.282-3.28V8.75a3.281 3.281 0 00-3.282-3.281z" stroke="currentColor" stroke-width="2.188" stroke-linejoin="round"/><path d="M8.75 3.281V5.47m17.5-2.188V5.47m5.469 5.468H3.28" stroke="currentColor" stroke-width="2.188" stroke-linecap="round" stroke-linejoin="round"/></svg><svg viewBox="0 0 40 40" id="close" xmlns="http://www.w3.org/2000/svg"><path d="M28.75 28.746l-17.5-17.5m17.5 0l-17.5 17.5" stroke="currentColor" stroke-width="2.5" stroke-linecap="round" stroke-linejoin="round"/></svg><svg viewBox="0 0 23 23" id="instagram" xmlns="http://www.w3.org/2000/svg"><path d="M22.123 11.063c0 1.596.004 3.193 0 4.793-.01 2.32-1.088 4.036-3.014 5.249-1.129.704-2.382 1.016-3.71 1.016-2.907 0-5.81.014-8.717-.004-2.02-.014-3.76-.727-5.137-2.225A5.721 5.721 0 01.038 16.61a6.831 6.831 0 01-.036-.798c0-3.18-.004-6.359 0-9.538.013-2.323 1.092-4.04 3.019-5.253C4.158.312 5.415.005 6.753.005c2.898 0 5.796-.014 8.695.004 2.029.014 3.772.732 5.15 2.239a5.703 5.703 0 011.49 3.264c.057.49.03.98.035 1.467.004 1.364 0 2.724 0 4.084zm-20.467 0c0 1.636-.004 3.268 0 4.905.005 1.123.415 2.091 1.182 2.894 1.03 1.074 2.314 1.596 3.79 1.605 2.93.018 5.855.004 8.784.004.945 0 1.846-.205 2.667-.677 1.534-.879 2.398-2.172 2.398-3.982V6.158c0-1.115-.405-2.078-1.168-2.876-1.02-1.079-2.31-1.61-3.78-1.618-2.962-.023-5.918-.01-8.879-.01-.923 0-1.797.22-2.6.674-1.529.883-2.398 2.176-2.394 3.986v4.749z"/><path d="M11.078 15.79c-2.88 0-5.19-2.3-5.185-5.172.004-2.795 2.345-5.087 5.203-5.083 2.872 0 5.19 2.305 5.186 5.15-.005 2.818-2.337 5.106-5.204 5.106zm0-1.65c1.958 0 3.554-1.555 3.554-3.468 0-1.922-1.583-3.487-3.536-3.487-1.957 0-3.554 1.556-3.554 3.469 0 1.922 1.583 3.487 3.536 3.487zM15.793 5.114c0-.633.486-1.141 1.092-1.141.607 0 1.093.512 1.093 1.141 0 .62-.486 1.128-1.084 1.133-.606.004-1.101-.5-1.101-1.133z"/></svg><svg viewBox="0 0 25 25" id="plus" xmlns="http://www.w3.org/2000/svg"><path d="M12.885 2v21.77M23.77 12.885H2" stroke="currentColor" stroke-width="2.419" stroke-linecap="round" stroke-linejoin="round"/></svg><svg viewBox="0 0 21 21" id="search" xmlns="http://www.w3.org/2000/svg"><path d="M9.068 2.625a6.443 6.443 0 100 12.886 6.443 6.443 0 000-12.886z" stroke="currentColor" stroke-width="1.313" stroke-miterlimit="10"/><path d="M13.875 13.875l4.5 4.5" stroke="currentColor" stroke-width="1.313" stroke-miterlimit="10" stroke-linecap="round"/></svg><svg viewBox="0 0 17 19" id="sent" xmlns="http://www.w3.org/2000/svg"><g clip-path="url(#jclip0_1_1380)"><path d="M15.396 7.46L1.138 1.244 2.362 6.05l6.2.953c.507.083.507.829 0 .911l-6.2.995-1.224 4.766L15.396 7.46zM.632.042l16.072 7.003c.38.166.38.663 0 .829L.674 14.877c-.337.208-.76-.124-.675-.497L1.56 8.371a.454.454 0 01.338-.331l3.67-.58-3.628-.54a.495.495 0 01-.38-.372L0 .58C-.086.208.294-.124.631.042z"/></g><defs><clipPath id="jclip0_1_1380"><path d="M0 0h17v18.7H0z"/></clipPath></defs></svg><svg viewBox="0 0 31 25" id="telegram" xmlns="http://www.w3.org/2000/svg"><path d="M23.113 8.503l.002-.003a4.5 4.5 0 00.77-1.01c.098-.18.188-.383.241-.59.048-.188.094-.492-.036-.798-.162-.377-.5-.561-.83-.602-.284-.034-.578.03-.847.12-.55.185-1.3.588-2.304 1.255l-.003.002a681.945 681.945 0 01-11.113 7.316 3.992 3.992 0 01-3.018.043l-.03-.013-.032-.009c-1.18-.346-2.46-.75-3.448-1.068a201.485 201.485 0 01-1.555-.508l-.014-.005a.807.807 0 01-.058-.053.401.401 0 01-.086-.114.464.464 0 01.102-.135c.17-.173.546-.43 1.312-.723h0l.012-.005-.28-.696.28.696h.002l.008-.004.03-.012.115-.046.443-.178 1.619-.65 5.234-2.1c4.022-1.617 8.64-3.477 11.02-4.446h0l.01-.004c.904-.384 2.898-1.194 4.673-1.91.886-.359 1.715-.692 2.323-.936l.725-.291.199-.08.052-.021.008-.003.01-.004.069-.023c.062-.02.153-.046.262-.07a2.46 2.46 0 01.724-.07c.234.02.35.087.408.155.054.062.175.256.127.792h0l-.001.013c-.055.751-.393 2.896-.817 5.584-.165 1.046-.343 2.175-.523 3.335a6902.421 6902.421 0 00-1.806 11.073l-.13.799-.034.211-.009.055-.002.013v.004h0l.74.121-.74-.12-.005.027-.002.023h0v.006l-.006.036a2.695 2.695 0 01-.184.66c-.152.354-.363.607-.66.706a5.865 5.865 0 01-3.409-1.233l-.009-.006-.009-.007c-.09-.066-.434-.286-.897-.582l-.237-.15c-.604-.386-1.399-.895-2.247-1.45-1.711-1.117-3.597-2.392-4.59-3.212l-.03-.025-.034-.022a.729.729 0 01-.244-.27.689.689 0 01.022-.678.735.735 0 01.262-.255l.067-.04.058-.05a289.49 289.49 0 008.35-7.765zM.748 12.483l.003-.013c0 .008-.002.012-.003.013z" stroke="currentColor" stroke-width="1.5"/></svg><svg viewBox="0 0 23 19" id="telegram-filled" xmlns="http://www.w3.org/2000/svg"><path d="M16.761 6.053c.706-.706 1.406-2.354-1.533-.353a505.995 505.995 0 01-8.292 5.59 3.449 3.449 0 01-2.706.06C2.467 10.82.408 10.114.408 10.114s-1.406-.883 1-1.825c0 0 10.174-4.178 13.702-5.65C16.462 2.051 21.05.17 21.05.17s2.117-.825 1.94 1.176c-.058.824-.529 3.709-.999 6.827-.706 4.413-1.47 9.24-1.47 9.24s-.118 1.353-1.117 1.588a4.837 4.837 0 01-2.94-1.059c-.235-.176-4.41-2.825-5.94-4.12a1.116 1.116 0 01.06-1.883 216.445 216.445 0 006.178-5.885z"/></svg><svg viewBox="0 0 18 20" id="tick" xmlns="http://www.w3.org/2000/svg"><path d="M13 6l-7 8-3-3" stroke="currentColor" stroke-width="3" stroke-linecap="round" stroke-linejoin="round"/></svg><svg viewBox="0 0 31 19" id="vk" xmlns="http://www.w3.org/2000/svg"><path d="M24.463 11.396h0c-.67-.593-.76-1.64-.125-2.323h0c2.531-2.716 4.516-5.8 5.177-7.587.123-.333-.128-.73-.54-.73H26.33c-.677 0-.87.223-.95.39h0c-2.179 4.456-4.072 6.43-5.434 7.603l4.517 2.646zm0 0l.426.374c.68.594 1.598 1.397 2.513 2.292 1.134 1.109 2.198 2.298 2.776 3.334a.582.582 0 01-.53.854h-3.505a.71.71 0 01-.618-.349h0a16.3 16.3 0 00-2.488-3.2c-.551-.544-1.167-1.056-1.818-1.436-.646-.377-1.371-.65-2.125-.65h-.003c-.026 0-.061 0-.098.002m5.47-1.222l-14.74-1.313m6.411-9.27v0l-4.79-.055.783 1.121c.392.524.605 1.16.605 1.813v0l-.005 5.148L16.134.811zm0 0h.009m-.009 0h.009m0 0c.409 0 .726.324.726.709V7.345c0 1.588 1.876 2.44 3.077 1.404L16.143.811zm-6.42 9.27h0C8.542 8.936 7.48 7.236 6.635 5.605c-.85-1.644-1.51-3.283-1.863-4.358h0a.72.72 0 00-.688-.49h0L1.482.75s0 0 0 0a.717.717 0 00-.705.9m8.945 8.432c1.094 1.064 3.005.353 3.005-1.242l-3.005 1.242zM.777 1.651l-.721.205.721-.205zm0 0c2.363 8.283 7.11 15.784 15.318 16.596a.715.715 0 00.774-.712v-2.706c0-1.157.908-2.182 2.124-2.212m0 0l.019.75-.02-.75s0 0 0 0z" stroke="currentColor" stroke-width="1.5"/></svg></svg>