<svg width="23" height="23" viewBox="0 0 23 23" fill="none" xmlns="http://www.w3.org/2000/svg">
<path d="M22.1229 11.063C22.1229 12.6593 22.1273 14.2556 22.1229 15.8564C22.1139 18.1751 21.0349 19.8918 19.1086 21.1046C17.9805 21.8091 16.7275 22.1212 15.3988 22.1212C12.4915 22.1212 9.58873 22.1346 6.6815 22.1168C4.66159 22.1034 2.9226 21.39 1.54478 19.8918C0.69312 18.9643 0.184799 17.8718 0.0376534 16.61C0.00644072 16.3424 0.00198176 16.0793 0.00198176 15.8118C0.00198176 12.6326 -0.0024772 9.45334 0.00198176 6.27411C0.0153586 3.95099 1.09443 2.23429 3.02069 1.02146C4.15773 0.312484 5.41515 0.00481566 6.75284 0.00481566C9.65116 0.00481566 12.5495 -0.00856119 15.4478 0.00927463C17.4766 0.0226515 19.2201 0.740543 20.5979 2.24767C21.4406 3.17067 21.9445 4.26312 22.0872 5.51163C22.1452 6.00211 22.1184 6.49259 22.1229 6.97862C22.1273 8.34306 22.1229 9.70304 22.1229 11.063ZM1.65625 11.063C1.65625 12.6995 1.65179 14.3314 1.65625 15.9679C1.66071 17.0915 2.07094 18.0591 2.83788 18.8617C3.8679 19.9363 5.15207 20.458 6.62799 20.467C9.55752 20.4848 12.4826 20.4714 15.4121 20.4714C16.3574 20.4714 17.2581 20.2663 18.0786 19.7937C19.6125 18.9152 20.4775 17.6221 20.4775 15.8118C20.4775 12.5924 20.4775 9.37754 20.4775 6.15817C20.4775 5.04343 20.0717 4.0803 19.3093 3.28215C18.2882 2.20308 16.9995 1.67246 15.5281 1.66355C12.5673 1.64125 9.61103 1.65463 6.65028 1.65463C5.72728 1.65463 4.85332 1.87312 4.05071 2.32793C2.52129 3.2108 1.65179 4.5039 1.65625 6.31424C1.65625 7.89717 1.65625 9.48009 1.65625 11.063Z" fill="#06142B"/>
<path d="M11.0783 15.7908C8.19786 15.7908 5.88813 13.4899 5.89258 10.6184C5.89704 7.82261 8.238 5.5307 11.0962 5.53516C13.9678 5.53516 16.2864 7.84044 16.2819 10.6853C16.2775 13.5033 13.9455 15.7908 11.0783 15.7908ZM11.0783 14.1409C13.0358 14.1409 14.6321 12.5848 14.6321 10.6719C14.6321 8.75007 13.0492 7.18498 11.0962 7.18498C9.1387 7.18498 7.5424 8.74115 7.5424 10.654C7.5424 12.5759 9.12533 14.1409 11.0783 14.1409Z" fill="#06142B"/>
<path d="M15.793 5.11415C15.793 4.48098 16.279 3.97266 16.8854 3.97266C17.4918 3.97266 17.9779 4.48544 17.9779 5.11415C17.9779 5.73394 17.4918 6.24226 16.8943 6.24672C16.2879 6.25118 15.793 5.74732 15.793 5.11415Z" fill="#06142B"/>
</svg>
