<svg width="31" height="25" viewBox="0 0 31 25" fill="none" xmlns="http://www.w3.org/2000/svg">
<path d="M23.1126 8.50296L23.1153 8.50036C23.4042 8.21808 23.6871 7.84948 23.8842 7.4896C23.9825 7.31001 24.0735 7.1073 24.1263 6.89981C24.174 6.71244 24.2202 6.40804 24.0896 6.10207C23.9285 5.72459 23.5902 5.54066 23.2607 5.50045C22.9762 5.46574 22.6817 5.53003 22.4134 5.62014C21.8635 5.80481 21.1133 6.20772 20.1093 6.87474L20.1058 6.87707C16.4263 9.35117 12.7219 11.7898 8.9932 14.1927C8.52753 14.3906 8.02607 14.4983 7.51694 14.5091C6.98894 14.5203 6.46444 14.4271 5.97512 14.2355L5.94433 14.2234L5.91259 14.2141C4.73339 13.8685 3.45265 13.4644 2.46457 13.146C1.97102 12.9869 1.5515 12.8495 1.25549 12.752C1.1075 12.7032 0.990433 12.6644 0.910469 12.6378L0.896175 12.6331C0.878184 12.6182 0.858062 12.6002 0.837964 12.5799C0.779976 12.5212 0.759014 12.4809 0.752305 12.4655C0.761252 12.4433 0.786925 12.3993 0.854478 12.3306C1.02422 12.1579 1.39954 11.9004 2.16622 11.6077L2.16626 11.6078L2.17777 11.6031L1.89866 10.907C2.17777 11.6031 2.17782 11.6031 2.17793 11.6031L2.1784 11.6029L2.18027 11.6021L2.18773 11.5992L2.21727 11.5873L2.33296 11.5409L2.77632 11.3631L4.39474 10.7138C5.7546 10.1681 7.61729 9.42036 9.62863 8.61205C13.6506 6.99573 18.2691 5.13645 20.6487 4.16725L20.6488 4.16733L20.6591 4.16295C21.5627 3.77913 23.5566 2.96917 25.3319 2.25229C26.218 1.89449 27.0472 1.56084 27.655 1.31663L28.3798 1.0256L28.5789 0.945725L28.6309 0.924877L28.6385 0.921838L28.6497 0.91782C28.6639 0.912848 28.6871 0.904938 28.718 0.895181C28.7801 0.875552 28.8709 0.849115 28.9798 0.824111C29.2063 0.772073 29.4706 0.735701 29.7037 0.75542C29.9376 0.775207 30.0532 0.84216 30.1121 0.909646C30.1661 0.971588 30.2874 1.16596 30.239 1.7023L30.2389 1.70229L30.2379 1.71503C30.183 2.46603 29.8447 4.61116 29.4207 7.299C29.2557 8.34525 29.0777 9.47373 28.8984 10.6342C28.4222 13.5372 27.9268 16.5755 27.5504 18.8883C27.3621 20.0452 27.2036 21.0206 27.0921 21.7068L26.9624 22.5057L26.9281 22.7172L26.9193 22.7715L26.917 22.7853L26.9165 22.7888L26.9163 22.7897L26.9163 22.7899L27.6566 22.91L26.9163 22.79L26.912 22.8166L26.9099 22.8398L26.9098 22.8405L26.9098 22.8405L26.9097 22.8417L26.9093 22.8455C26.9085 22.8522 26.907 22.8647 26.9045 22.8822C26.8996 22.9174 26.8909 22.9718 26.8767 23.0396C26.8479 23.1774 26.7989 23.359 26.72 23.5427C26.5681 23.896 26.3571 24.1493 26.0604 24.2475C24.817 24.2053 23.6213 23.7728 22.6514 23.0155L22.6423 23.0085L22.6331 23.0017C22.5429 22.9356 22.1994 22.7164 21.7357 22.4204C21.6598 22.372 21.5807 22.3215 21.4989 22.2692C20.8951 21.8836 20.1002 21.3746 19.2515 20.8202C17.5407 19.7027 15.6548 18.4284 14.6619 17.6083L14.6313 17.583L14.5982 17.5611C14.493 17.4915 14.4095 17.3983 14.3537 17.2916C14.298 17.185 14.2713 17.0676 14.2751 16.9499C14.2788 16.8322 14.313 16.7163 14.3756 16.6129C14.4384 16.5093 14.5281 16.421 14.638 16.3577L14.7054 16.3189L14.7633 16.2671C17.5984 13.7329 20.382 11.1444 23.1126 8.50296ZM0.748403 12.4826C0.74765 12.4826 0.747605 12.4786 0.750524 12.4702C0.750615 12.4783 0.749155 12.4825 0.748403 12.4826Z" stroke="#06142B" stroke-width="1.5"/>
</svg>
