<svg width="23" height="19" viewBox="0 0 23 19" fill="none" xmlns="http://www.w3.org/2000/svg">
<path d="M16.7612 6.05256C17.4666 5.34661 18.1668 3.69941 15.2277 5.69959C12.4821 7.59065 9.71793 9.4545 6.93553 11.2909C6.51183 11.4826 6.05378 11.5867 5.58889 11.5968C5.124 11.6069 4.66187 11.5228 4.23025 11.3497C2.46677 10.8202 0.408103 10.1143 0.408103 10.1143C0.408103 10.1143 -0.997567 9.23059 1.40869 8.28933C1.40869 8.28933 11.5819 4.11121 15.1101 2.63921C16.4621 2.05093 21.0485 0.168406 21.0485 0.168406C21.0485 0.168406 23.1659 -0.656475 22.9896 1.34498C22.9308 2.16858 22.4605 5.05375 21.9903 8.17167C21.2836 12.5851 20.5194 17.4116 20.5194 17.4116C20.5194 17.4116 20.4019 18.7647 19.4025 19C18.3328 18.9819 17.2992 18.6095 16.4634 17.9411C16.2283 17.7646 12.0534 15.116 10.5238 13.8218C10.3682 13.7163 10.2418 13.5731 10.1563 13.4056C10.0709 13.2381 10.0291 13.0517 10.035 12.8637C10.0409 12.6757 10.0942 12.4922 10.1899 12.3304C10.2856 12.1685 10.4207 12.0336 10.5826 11.938C12.6806 10.017 14.7405 8.05481 16.7612 6.05256Z" fill="#163D7E"/>
</svg>
