<svg width="31" height="19" viewBox="0 0 31 19" fill="none" xmlns="http://www.w3.org/2000/svg">
<path d="M24.4626 11.3955L24.4625 11.3954C23.7921 10.8028 23.7022 9.75554 24.3377 9.07298L24.338 9.07271C26.8693 6.35673 28.8544 3.27287 29.5149 1.4856C29.6378 1.15286 29.3875 0.756331 28.9743 0.756331H26.3302C25.6527 0.756331 25.4606 0.979254 25.3794 1.14534L25.3794 1.14535C23.2012 5.60202 21.308 7.57526 19.9458 8.74934L24.4626 11.3955ZM24.4626 11.3955C24.5903 11.5083 24.7335 11.6335 24.8891 11.7697C25.5689 12.3643 26.4872 13.1674 27.4018 14.0618C28.5358 15.1705 29.6005 16.3595 30.1776 17.3964C30.3809 17.7625 30.12 18.25 29.6472 18.25H26.1435C25.8804 18.25 25.6471 18.1128 25.5253 17.9011L25.5251 17.9009C25.0451 17.0682 24.1354 15.7854 23.0366 14.7003C22.486 14.1566 21.8701 13.6448 21.2194 13.2652C20.5725 12.8878 19.8478 12.6159 19.0939 12.6159H19.0909C19.0653 12.6159 19.0297 12.6159 18.9926 12.6169M24.4626 11.3955L9.7221 10.0824M16.1341 0.811202V0.811153L11.3442 0.756742L12.1267 1.87827C12.5192 2.4019 12.7316 3.03777 12.7316 3.6911V3.69172L12.7274 8.83909L16.1341 0.811202ZM16.1341 0.811202H16.1426M16.1341 0.811202H16.1426M16.1426 0.811202C16.5517 0.811202 16.8686 1.13631 16.8686 1.5209V1.53066V1.54043V1.55022V1.56002V1.56984V1.57967V1.58952V1.59938V1.60926V1.61915V1.62906V1.63899V1.64893V1.65888V1.66885V1.67883V1.68883V1.69885V1.70887V1.71892V1.72897V1.73905V1.74913V1.75923V1.76935V1.77948V1.78962V1.79978V1.80995V1.82013V1.83033V1.84055V1.85077V1.86101V1.87127V1.88154V1.89182V1.90211V1.91242V1.92275V1.93308V1.94343V1.9538V1.96417V1.97456V1.98496V1.99538V2.00581V2.01625V2.02671V2.03717V2.04765V2.05815V2.06865V2.07917V2.0897V2.10025V2.11081V2.12137V2.13196V2.14255V2.15316V2.16377V2.17441V2.18505V2.1957V2.20637V2.21705V2.22774V2.23844V2.24916V2.25988V2.27062V2.28137V2.29213V2.30291V2.31369V2.32449V2.33529V2.34611V2.35694V2.36778V2.37863V2.3895V2.40037V2.41126V2.42215V2.43306V2.44398V2.45491V2.46585V2.4768V2.48776V2.49873V2.50971V2.5207V2.53171V2.54272V2.55374V2.56478V2.57582V2.58687V2.59794V2.60901V2.6201V2.63119V2.6423V2.65341V2.66453V2.67567V2.68681V2.69796V2.70912V2.72029V2.73148V2.74267V2.75387V2.76507V2.77629V2.78752V2.79876V2.81V2.82126V2.83252V2.84379V2.85507V2.86636V2.87766V2.88897V2.90028V2.91161V2.92294V2.93428V2.94563V2.95699V2.96836V2.97973V2.99112V3.00251V3.01391V3.02531V3.03673V3.04815V3.05958V3.07102V3.08247V3.09392V3.10538V3.11685V3.12833V3.13981V3.15131V3.16281V3.17431V3.18583V3.19735V3.20888V3.22041V3.23195V3.2435V3.25506V3.26662V3.27819V3.28977V3.30135V3.31294V3.32454V3.33614V3.34775V3.35937V3.37099V3.38262V3.39426V3.4059V3.41754V3.4292V3.44086V3.45252V3.4642V3.47587V3.48756V3.49925V3.51094V3.52264V3.53435V3.54606V3.55778V3.5695V3.58123V3.59296V3.6047V3.61645V3.6282V3.63995V3.65171V3.66348V3.67525V3.68702V3.6988V3.71059V3.72238V3.73417V3.74597V3.75777V3.76958V3.78139V3.79321V3.80503V3.81686V3.82869V3.84052V3.85236V3.8642V3.87605V3.8879V3.89975V3.91161V3.92347V3.93534V3.94721V3.95908V3.97096V3.98284V3.99472V4.00661V4.0185V4.0304V4.04229V4.05419V4.0661V4.078V4.08991V4.10183V4.11374V4.12566V4.13759V4.14951V4.16144V4.17337V4.1853V4.19724V4.20918V4.22112V4.23306V4.245V4.25695V4.2689V4.28085V4.29281V4.30477V4.31672V4.32868V4.34065V4.35261V4.36458V4.37655V4.38852V4.40049V4.41246V4.42444V4.43641V4.44839V4.46037V4.47235V4.48433V4.49631V4.5083V4.52028V4.53227V4.54426V4.55624V4.56823V4.58022V4.59221V4.60421V4.6162V4.62819V4.64019V4.65218V4.66417V4.67617V4.68816V4.70016V4.71216V4.72415V4.73615V4.74815V4.76014V4.77214V4.78413V4.79613V4.80813V4.82012V4.83212V4.84411V4.85611V4.8681V4.8801V4.89209V4.90408V4.91608V4.92807V4.94006V4.95205V4.96404V4.97603V4.98801V5V5.01198V5.02397V5.03595V5.04793V5.05991V5.07189V5.08387V5.09584V5.10782V5.11979V5.13176V5.14373V5.1557V5.16767V5.17963V5.19159V5.20355V5.21551V5.22747V5.23942V5.25137V5.26332V5.27527V5.28722V5.29916V5.3111V5.32304V5.33497V5.3469V5.35883V5.37076V5.38268V5.39461V5.40652V5.41844V5.43035V5.44226V5.45417V5.46607V5.47797V5.48987V5.50176V5.51365V5.52554V5.53742V5.5493V5.56118V5.57305V5.58492V5.59679V5.60865V5.62051V5.63236V5.64421V5.65605V5.6679V5.67973V5.69157V5.7034V5.71522V5.72704V5.73886V5.75067V5.76248V5.77428V5.78608V5.79787V5.80966V5.82144V5.83322V5.84499V5.85676V5.86853V5.88029V5.89204V5.90379V5.91553V5.92727V5.939V5.95073V5.96245V5.97417V5.98588V5.99759V6.00929V6.02098V6.03267V6.04435V6.05603V6.0677V6.07936V6.09102V6.10267V6.11432V6.12596V6.1376V6.14922V6.16085V6.17246V6.18407V6.19567V6.20727V6.21886V6.23044V6.24201V6.25358V6.26514V6.2767V6.28825V6.29979V6.31132V6.32285V6.33437V6.34588V6.35739V6.36888V6.38037V6.39186V6.40333V6.4148V6.42626V6.43771V6.44916V6.4606V6.47203V6.48345V6.49486V6.50627V6.51766V6.52905V6.54044V6.55181V6.56317V6.57453V6.58588V6.59722V6.60855V6.61987V6.63119V6.64249V6.65379V6.66508V6.67636V6.68763V6.69889V6.71014V6.72139V6.73262V6.74385V6.75506V6.76627V6.77747V6.78866V6.79984V6.81101V6.82217V6.83332V6.84446V6.85559V6.86671V6.87782V6.88893V6.90002V6.9111V6.92217V6.93324V6.94429V6.95533V6.96636V6.97738V6.98839V6.99939V7.01039V7.02137V7.03233V7.04329V7.05424V7.06518V7.07611V7.08702V7.09793V7.10882V7.11971V7.13058V7.14144V7.15229V7.16313V7.17396V7.18477V7.19558V7.20637V7.21715V7.22792V7.23868V7.24943V7.26017V7.27089V7.2816V7.2923V7.30299V7.31367V7.32433V7.33499V7.34563C16.8686 8.93346 18.7448 9.78475 19.9457 8.74946L16.1426 0.811202ZM9.7221 10.0824L9.72208 10.0824C8.54342 8.93626 7.47973 7.23646 6.63581 5.60463C5.78602 3.96144 5.12633 2.32249 4.77264 1.24737L4.7726 1.24723C4.67777 0.958777 4.40457 0.757034 4.08493 0.756329L4.08476 0.756329L1.48191 0.75C1.48165 0.75 1.4814 0.75 1.48114 0.75C0.986891 0.750477 0.65248 1.21354 0.777169 1.65077M9.7221 10.0824C10.8159 11.1459 12.7269 10.4351 12.7274 8.83971L9.7221 10.0824ZM0.777169 1.65077L0.0559234 1.85646L0.777169 1.65077ZM0.777169 1.65077C3.14048 9.9336 7.88702 17.4349 16.0949 18.2466C16.501 18.2866 16.8686 17.955 16.8686 17.5347V14.8291C16.8686 13.672 17.7773 12.6474 18.9926 12.6169M18.9926 12.6169L19.0115 13.3666L18.9923 12.6169C18.9924 12.6169 18.9925 12.6169 18.9926 12.6169Z" stroke="#06142B" stroke-width="1.5"/>
</svg>
